<svg width="12" height="10" viewBox="0 0 12 10" fill="none" xmlns="http://www.w3.org/2000/svg">
<path d="M10.9856 4.21401C10.7312 1.96541 8.68272 0.144142 6.27302 0.0339163C5.57775 0.00339231 4.88248 0.0339163 4.18721 0.0339163V0.0169575C3.40885 0.0169575 2.62879 0.0474836 1.85212 0.00848068C1.20095 -0.0237391 0.960148 0.225541 0.97541 0.878416C1.00763 2.26726 0.975411 3.65779 0.987281 5.04833C1.01441 8.34832 4.22961 10.7258 7.41258 9.80668C9.84602 9.09785 11.2823 6.85094 10.9856 4.21401ZM6.07631 8.42463C5.62408 8.43408 5.1745 8.35347 4.75372 8.1875C4.33295 8.02152 3.94939 7.7735 3.62539 7.45787C3.3014 7.14223 3.04343 6.7653 2.86651 6.34901C2.68959 5.93272 2.59725 5.48539 2.59487 5.03307C2.57961 3.04053 4.06003 1.53299 6.0407 1.52451C8.02136 1.51603 9.50517 2.98118 9.52043 4.91606C9.53275 5.37473 9.45255 5.83117 9.28465 6.25818C9.11674 6.68518 8.86456 7.074 8.54314 7.40143C8.22172 7.72887 7.83764 7.98822 7.41383 8.16401C6.99001 8.3398 6.53513 8.42844 6.07631 8.42463Z" fill="white"/>
<path d="M6.07638 2.43005C5.40082 2.43976 4.75501 2.70958 4.27334 3.18336C3.79166 3.65714 3.5112 4.2984 3.49032 4.97372C3.47845 6.33034 4.67737 7.53264 6.03399 7.54282C6.70912 7.53428 7.3547 7.26458 7.83528 6.79033C8.31586 6.31607 8.59409 5.67411 8.61157 4.99915C8.62683 3.62388 7.4347 2.41818 6.07638 2.43005ZM6.12217 6.24724C5.87196 6.25918 5.62384 6.19648 5.40935 6.06709C5.19486 5.93769 5.02369 5.74746 4.91756 5.52055C4.81144 5.29365 4.77516 5.04032 4.81335 4.79275C4.85153 4.54519 4.96245 4.31456 5.13201 4.13017C5.30157 3.94579 5.52211 3.81597 5.76562 3.75721C6.00912 3.69846 6.2646 3.71342 6.49958 3.80019C6.73457 3.88697 6.93845 4.04164 7.08533 4.24455C7.23221 4.44747 7.31544 4.68947 7.32447 4.9398C7.33313 5.105 7.30872 5.27027 7.25268 5.42592C7.19664 5.58156 7.11011 5.72446 6.99813 5.84623C6.88615 5.968 6.75099 6.06619 6.60058 6.13505C6.45016 6.20391 6.28752 6.24205 6.12217 6.24724Z" fill="white"/>
</svg>
