<svg width="10" height="8" viewBox="0 0 10 8" fill="none" xmlns="http://www.w3.org/2000/svg">
<path fill-rule="evenodd" clip-rule="evenodd" d="M9.92306 0.946925C9.56102 1.10751 9.17119 1.21609 8.76281 1.26523C9.17988 1.01493 9.5002 0.619473 9.65081 0.148011C9.26039 0.379456 8.82827 0.547468 8.36776 0.63776C7.99936 0.24516 7.47455 0 6.89356 0C5.77792 0 4.87312 0.904065 4.87312 2.01957C4.87312 2.17844 4.89166 2.33217 4.92584 2.48018C3.24716 2.39617 1.75906 1.59154 0.762741 0.369741C0.588385 0.668048 0.489333 1.01493 0.489333 1.38524C0.489333 2.08586 0.846153 2.70419 1.38776 3.06593C1.05642 3.05565 0.744784 2.96478 0.473114 2.81334C0.473114 2.82192 0.473114 2.83049 0.473114 2.83906C0.473114 3.81742 1.1688 4.63347 2.09329 4.8192C1.92357 4.86549 1.74573 4.89006 1.56095 4.89006C1.4312 4.89006 1.30434 4.87749 1.18096 4.85349C1.43815 5.65583 2.18423 6.23987 3.06817 6.25645C2.37654 6.79763 1.50534 7.12051 0.558843 7.12051C0.396073 7.12051 0.235041 7.11137 0.0769043 7.09251C0.970693 7.66569 2.03246 8 3.17359 8C6.88893 8 8.92095 4.92264 8.92095 2.25388C8.92095 2.16587 8.91863 2.07958 8.91516 1.99271C9.30963 1.70812 9.65255 1.3521 9.92306 0.947496V0.946925Z" fill="white"/>
</svg>
