<svg width="12" height="10" viewBox="0 0 12 10" fill="none" xmlns="http://www.w3.org/2000/svg">
<path fill-rule="evenodd" clip-rule="evenodd" d="M10.9846 1.33846C11.3093 1.71048 11.4239 2.55244 11.4239 2.55244C11.4239 2.55244 11.5385 3.55105 11.5385 4.54964V5.46992C11.5385 6.44895 11.4239 7.44755 11.4239 7.44755C11.4239 7.44755 11.3093 8.28952 10.9846 8.66154C10.5851 9.10844 10.1337 9.14805 9.90971 9.1677C9.89816 9.16872 9.88723 9.16968 9.87693 9.17064C8.32999 9.30769 6.00001 9.30769 6.00001 9.30769C6.00001 9.30769 3.11618 9.28811 2.23768 9.19024C2.191 9.1792 2.13352 9.17092 2.06815 9.1615C1.78586 9.12085 1.35656 9.05903 1.01539 8.66156C0.690745 8.28954 0.576146 7.44758 0.576146 7.44758C0.576146 7.44758 0.461548 6.46855 0.461548 5.46995V4.54966C0.461548 3.55105 0.576146 2.55244 0.576146 2.55244C0.576146 2.55244 0.67162 1.7105 1.01539 1.33846C1.41497 0.891563 1.86636 0.851949 2.09031 0.832295C2.10186 0.831282 2.11279 0.830322 2.12309 0.829363C3.67003 0.711892 6.00001 0.692307 6.00001 0.692307C6.00001 0.692307 8.32999 0.711892 9.87693 0.829363C9.89288 0.83085 9.91038 0.832224 9.92927 0.833708C10.1592 0.85177 10.5964 0.886116 10.9846 1.33846ZM4.66312 7.27133V3.02237L8.29177 5.19581L4.66312 7.27133Z" fill="white"/>
</svg>
